<svg xmlns="http://www.w3.org/2000/svg" width="69" height="69" viewBox="0 0 69 69"><g transform="translate(-432 -244)"><g transform="translate(432 244)"><path d="M69,34.5c0,2.988-2.526,5.623-3.26,8.367-.761,2.852.109,6.384-1.358,8.883-1.467,2.526-4.971,3.559-7.036,5.6-2.065,2.065-3.07,5.569-5.6,7.036-2.5,1.44-6.031.6-8.883,1.358C40.1,66.474,37.488,69,34.5,69s-5.623-2.526-8.367-3.26c-2.852-.761-6.384.109-8.883-1.358-2.526-1.467-3.559-4.971-5.6-7.036-2.065-2.065-5.569-3.07-7.036-5.6-1.44-2.5-.6-6.031-1.358-8.883C2.526,40.123,0,37.488,0,34.5s2.526-5.623,3.26-8.367c.761-2.852-.109-6.384,1.358-8.883,1.467-2.526,4.971-3.559,7.036-5.6,2.065-2.065,3.07-5.569,5.6-7.036,2.5-1.44,6.031-.6,8.883-1.358C28.877,2.526,31.512,0,34.5,0s5.623,2.526,8.367,3.26c2.852.761,6.384-.109,8.883,1.358,2.526,1.467,3.559,4.971,5.6,7.036,2.065,2.065,5.569,3.07,7.036,5.6,1.44,2.5.6,6.031,1.358,8.883C66.474,28.877,69,31.512,69,34.5Z" fill="#ffd251"/></g><g transform="translate(440.122 252.122)"><path d="M82.655,56.278c0,2.282-1.929,4.292-2.5,6.384-.57,2.173.081,4.89-1.032,6.791-1.114,1.929-3.8,2.717-5.379,4.292s-2.336,4.238-4.292,5.379c-1.9,1.114-4.618.462-6.791,1.032-2.119.57-4.1,2.5-6.384,2.5s-4.292-1.929-6.384-2.5c-2.173-.57-4.89.081-6.791-1.032-1.929-1.114-2.717-3.8-4.292-5.379s-4.238-2.336-5.379-4.292c-1.114-1.9-.462-4.618-1.032-6.791-.57-2.119-2.5-4.1-2.5-6.384s1.929-4.292,2.5-6.384c.57-2.173-.081-4.89,1.032-6.791,1.114-1.929,3.8-2.717,5.379-4.292s2.336-4.238,4.292-5.379c1.9-1.114,4.618-.462,6.791-1.032,2.119-.57,4.1-2.5,6.384-2.5s4.292,1.929,6.384,2.5c2.173.57,4.89-.081,6.791,1.032,1.929,1.114,2.717,3.8,4.292,5.379s4.238,2.336,5.379,4.292c1.114,1.9.462,4.618,1.032,6.791C80.7,51.985,82.655,54,82.655,56.278Z" transform="translate(-29.9 -29.9)" fill="#ffe39e"/></g><text transform="translate(458 289)" fill="#ecbd36" font-size="31" font-family="Helvetica-Bold, Helvetica" font-weight="700" letter-spacing="0.048em"><tspan x="0" y="0">1</tspan></text></g></svg>