<svg xmlns="http://www.w3.org/2000/svg" width="49.309" height="49.309" viewBox="0 0 49.309 49.309"><g transform="translate(-198 -280.691)"><g transform="translate(198 280.691)"><path d="M49.309,24.654c0,2.135-1.805,4.018-2.33,5.979-.544,2.038.078,4.562-.971,6.348-1.048,1.805-3.553,2.543-5.028,4-1.475,1.475-2.194,3.98-4,5.028-1.786,1.029-4.31.427-6.348.971-1.98.524-3.844,2.33-5.979,2.33s-4.018-1.805-5.979-2.33c-2.038-.544-4.562.078-6.348-.971-1.805-1.048-2.543-3.553-4-5.028-1.475-1.475-3.98-2.194-5.028-4-1.029-1.786-.427-4.31-.971-6.348C1.805,28.673,0,26.79,0,24.654s1.805-4.018,2.33-5.979c.544-2.038-.078-4.562.971-6.348,1.048-1.805,3.553-2.543,5.028-4,1.475-1.475,2.194-3.98,4-5.028,1.786-1.029,4.31-.427,6.348-.971C20.636,1.805,22.519,0,24.654,0s4.018,1.805,5.979,2.33c2.038.544,4.562-.078,6.348.971,1.805,1.048,2.543,3.553,4,5.028,1.475,1.475,3.98,2.194,5.028,4,1.029,1.786.427,4.31.971,6.348C47.5,20.636,49.309,22.519,49.309,24.654Z" fill="#c9c9cf"/></g><g transform="translate(203.804 286.496)"><path d="M67.6,48.75c0,1.631-1.378,3.067-1.786,4.562-.408,1.553.058,3.494-.738,4.853-.8,1.378-2.718,1.941-3.844,3.067s-1.67,3.028-3.067,3.844c-1.359.8-3.3.33-4.853.738C51.8,66.222,50.381,67.6,48.75,67.6s-3.067-1.378-4.562-1.786c-1.553-.408-3.494.058-4.853-.738-1.378-.8-1.941-2.718-3.067-3.844s-3.028-1.67-3.844-3.067c-.8-1.359-.33-3.3-.738-4.853C31.278,51.8,29.9,50.381,29.9,48.75s1.378-3.067,1.786-4.562c.408-1.553-.058-3.494.738-4.853.8-1.378,2.718-1.941,3.844-3.067s1.67-3.028,3.067-3.844c1.359-.8,3.3-.33,4.853-.738C45.7,31.278,47.119,29.9,48.75,29.9s3.067,1.378,4.562,1.786c1.553.408,3.494-.058,4.853.738,1.378.8,1.941,2.718,3.067,3.844s3.028,1.67,3.844,3.067c.8,1.359.33,3.3.738,4.853C66.2,45.683,67.6,47.119,67.6,48.75Z" transform="translate(-29.9 -29.9)" fill="#d8d8df"/></g><text transform="translate(216 313)" fill="#6d6d6d" font-size="23" font-family="Helvetica-Bold, Helvetica" font-weight="700" letter-spacing="0.048em"><tspan x="0" y="0">2</tspan></text></g></svg>